<svg width="32" height="32" viewBox="0 0 32 32" fill="none" xmlns="http://www.w3.org/2000/svg">
<g clip-path="url(#clip0_191_189)">
<path d="M24 0H8C3.58172 0 0 3.58172 0 8V24C0 28.4183 3.58172 32 8 32H24C28.4183 32 32 28.4183 32 24V8C32 3.58172 28.4183 0 24 0Z" fill="white" fill-opacity="0.45"/>
<path d="M25.9955 16.3614C25.9881 16.1894 25.944 15.9875 25.841 15.8678C25.6865 15.6883 25.6718 15.5013 25.6644 15.2845C25.635 14.2374 25.1421 13.4821 24.2298 13.0109C24.1489 12.9661 24.068 12.9361 23.9723 12.8913C24.1489 11.7246 23.7811 10.7972 22.7805 10.1989C21.78 9.60063 20.8015 9.72777 19.9187 10.4383C19.5509 10.2438 19.2051 10.0568 18.8372 9.8549C18.9844 8.93502 18.7342 8.11984 18.028 7.46172C17.616 7.0803 17.1378 6.88585 16.6008 6.8335V6.84098C16.5419 6.84098 16.4757 6.84098 16.4168 6.84098C16.358 6.84098 16.2918 6.84098 16.2329 6.84098V6.84846C15.6959 6.89333 15.2177 7.08778 14.8057 7.47667C14.0994 8.12732 13.8419 8.94998 13.9964 9.86986C13.6212 10.0718 13.2828 10.2513 12.915 10.4532C12.0321 9.74272 11.0537 9.60811 10.0531 10.2064C9.0526 10.8047 8.68475 11.7321 8.86132 12.8988C8.77304 12.9361 8.68475 12.9735 8.60383 13.0184C7.69158 13.4896 7.19867 14.2449 7.16924 15.2919C7.16188 15.5088 7.14717 15.6883 6.99267 15.8753C6.88968 15.9949 6.85289 16.1969 6.83818 16.3689C6.82347 16.6082 6.84554 16.855 6.87496 17.0943C7.22809 20.2578 8.80247 22.5912 11.5319 24.1168C13.0768 24.9769 14.7321 25.2237 16.4168 25.1564C18.1016 25.2162 19.7495 24.9769 21.3018 24.1168C24.0312 22.5912 25.6056 20.2503 25.9587 17.0943C25.9881 16.8475 26.0102 16.6007 25.9955 16.3614ZM22.7437 14.6039C23.0086 14.4244 23.3838 14.4244 23.6486 14.6039C23.9356 14.7983 24.0606 15.1199 23.9723 15.4939C23.5236 15.4939 23.0674 15.4939 22.6113 15.4939C22.5377 15.4939 22.4715 15.4864 22.4053 15.4789C22.3318 15.1125 22.4568 14.7983 22.7437 14.6039ZM21.5519 11.5227C21.9933 11.5301 22.3685 11.919 22.3685 12.3678C22.3685 12.8464 21.9933 13.2129 21.5225 13.1979C21.0664 13.1904 20.7132 12.8165 20.7206 12.3528C20.728 11.9041 21.1105 11.5152 21.5519 11.5227ZM19.4405 14.6039C19.7054 14.4244 20.0806 14.4244 20.3454 14.6039C20.6323 14.7983 20.7574 15.1125 20.6765 15.4789C20.1541 15.4789 19.6318 15.4789 19.1094 15.4789C19.0285 15.1125 19.1536 14.7983 19.4405 14.6039ZM18.2487 11.5227C18.6901 11.5227 19.0727 11.9116 19.0653 12.3603C19.0653 12.8389 18.6975 13.2054 18.2193 13.1904C17.7558 13.1829 17.41 12.8165 17.41 12.3453C17.4174 11.9041 17.8073 11.5227 18.2487 11.5227ZM16.4168 8.52369C16.8509 8.53117 17.2114 8.89763 17.2261 9.34635C17.2408 9.79508 16.873 10.184 16.4168 10.1989C15.9607 10.184 15.6002 9.80255 15.6076 9.34635C15.6223 8.89763 15.9901 8.53117 16.4168 8.52369ZM17.0642 14.6189C17.3364 14.8208 17.4468 15.1274 17.3659 15.4789C17.1084 15.4789 16.8509 15.4789 16.6008 15.4789C16.4757 15.4789 16.358 15.4789 16.2329 15.4789C15.9754 15.4789 15.7179 15.4789 15.4678 15.4789C15.3869 15.1274 15.4972 14.8208 15.7694 14.6189C15.9018 14.5216 16.0048 14.4468 16.4463 14.4468C16.9245 14.4468 16.9318 14.5216 17.0642 14.6189ZM14.5923 11.5227C15.0337 11.5227 15.4163 11.9041 15.4237 12.3528C15.431 12.824 15.0779 13.1904 14.6144 13.1979C14.1436 13.2054 13.7757 12.8464 13.7684 12.3678C13.7757 11.9116 14.1509 11.5301 14.5923 11.5227ZM12.4883 14.6039C12.7531 14.4244 13.1283 14.4244 13.3932 14.6039C13.6801 14.7983 13.8051 15.1125 13.7316 15.4789C13.2092 15.4789 12.6869 15.4789 12.1646 15.4789C12.0836 15.1199 12.2013 14.7983 12.4883 14.6039ZM11.2891 11.5227C11.7305 11.5152 12.1204 11.9041 12.1204 12.3453C12.1278 12.809 11.7746 13.1829 11.3185 13.1904C10.8477 13.1979 10.4725 12.8389 10.4725 12.3603C10.4651 11.919 10.8403 11.5301 11.2891 11.5227ZM9.18502 14.6039C9.44987 14.4244 9.82507 14.4244 10.0899 14.6039C10.3768 14.7983 10.5019 15.1125 10.4283 15.4864C10.3621 15.4939 10.2886 15.5013 10.2223 15.5013C9.76622 15.5013 9.31009 15.5013 8.86132 15.5013C8.78039 15.1199 8.8981 14.8058 9.18502 14.6039ZM24.274 17.3112C23.8546 20.1606 21.7653 22.5014 19.0212 23.2269C18.2193 23.4363 17.41 23.4512 16.6008 23.4512C16.5419 23.4512 16.4757 23.4512 16.4168 23.4512C16.358 23.4512 16.2918 23.4512 16.2329 23.4512C15.4237 23.4587 14.6144 23.4437 13.8125 23.2269C11.0684 22.5014 8.97903 20.1606 8.55969 17.3112C8.55233 17.2738 8.55969 17.2364 8.55969 17.1915C11.1125 17.1915 13.6654 17.1915 16.2329 17.1915C16.358 17.1915 16.4757 17.1915 16.6008 17.1915C19.1609 17.1915 21.7211 17.1915 24.274 17.1915C24.274 17.2364 24.2813 17.2738 24.274 17.3112Z" fill="black"/>
</g>
<defs>
<clipPath id="clip0_191_189">
<rect width="32" height="32" fill="white"/>
</clipPath>
</defs>
</svg>
