<svg width="201" height="201" viewBox="0 0 201 201" fill="none" xmlns="http://www.w3.org/2000/svg">
<path d="M84.0038 75.1209C81.5508 72.6679 77.5737 72.6679 75.1207 75.1209C72.6678 77.5738 72.6678 81.5509 75.1207 84.0039L91.6168 100.5L75.1209 116.996C72.6679 119.449 72.6679 123.426 75.1209 125.879C77.5739 128.332 81.551 128.332 84.0039 125.879L100.5 109.383L116.996 125.879C119.449 128.332 123.426 128.332 125.879 125.879C128.332 123.426 128.332 119.449 125.879 116.996L109.383 100.5L125.879 84.0041C128.332 81.5511 128.332 77.574 125.879 75.121C123.426 72.668 119.449 72.668 116.996 75.121L100.5 91.6169L84.0038 75.1209Z" fill="#3a5274"/>
<path fill-rule="evenodd" clip-rule="evenodd" d="M100.5 10.4688C50.7771 10.4688 10.4688 50.7771 10.4688 100.5C10.4688 150.223 50.7771 190.531 100.5 190.531C150.223 190.531 190.531 150.223 190.531 100.5C190.531 50.7771 150.223 10.4688 100.5 10.4688ZM23.0312 100.5C23.0312 57.7152 57.7152 23.0312 100.5 23.0312C143.285 23.0312 177.969 57.7152 177.969 100.5C177.969 143.285 143.285 177.969 100.5 177.969C57.7152 177.969 23.0312 143.285 23.0312 100.5Z" fill="#3a5274"/>
</svg>
