<svg width="33" height="33" viewBox="0 0 33 33" fill="none" xmlns="http://www.w3.org/2000/svg">
<path fill-rule="evenodd" clip-rule="evenodd" d="M13.2996 4.35913H18.8005C21.2585 4.35911 23.2054 4.35909 24.7291 4.56395C26.2972 4.77478 27.5664 5.21898 28.5674 6.21992C29.5683 7.22086 30.0125 8.49008 30.2233 10.0582C30.4282 11.5819 30.4282 13.5288 30.4282 15.9868V16.1377C30.4282 18.5957 30.4282 20.5426 30.2233 22.0663C30.0125 23.6345 29.5683 24.9037 28.5674 25.9046C27.5664 26.9056 26.2972 27.3498 24.7291 27.5606C23.2054 27.7654 21.2585 27.7654 18.8005 27.7654H13.2996C10.8416 27.7654 8.89464 27.7654 7.37094 27.5606C5.80282 27.3498 4.5336 26.9056 3.53267 25.9046C2.53173 24.9037 2.08752 23.6345 1.87669 22.0663C1.67184 20.5426 1.67185 18.5957 1.67188 16.1377V15.9868C1.67185 13.5288 1.67184 11.5819 1.87669 10.0582C2.08752 8.49008 2.53173 7.22086 3.53267 6.21992C4.5336 5.21898 5.80282 4.77478 7.37094 4.56395C8.89464 4.35909 10.8416 4.35911 13.2996 4.35913ZM7.63827 6.55231C6.29262 6.73323 5.51734 7.07251 4.9513 7.63856C4.38526 8.2046 4.04597 8.97988 3.86506 10.3255C3.68026 11.7 3.67813 13.5119 3.67813 16.0623C3.67813 18.6126 3.68026 20.4245 3.86506 21.799C4.04597 23.1447 4.38526 23.9199 4.9513 24.486C5.51734 25.052 6.29262 25.3913 7.63827 25.5722C9.01277 25.757 10.8246 25.7592 13.375 25.7592H18.725C21.2754 25.7592 23.0873 25.757 24.4618 25.5722C25.8074 25.3913 26.5827 25.052 27.1487 24.486C27.7148 23.9199 28.0541 23.1447 28.235 21.799C28.4198 20.4245 28.4219 18.6126 28.4219 16.0623C28.4219 13.5119 28.4198 11.7 28.235 10.3255C28.0541 8.97988 27.7148 8.2046 27.1487 7.63856C26.5827 7.07251 25.8074 6.73323 24.4618 6.55231C23.0873 6.36751 21.2754 6.36538 18.725 6.36538H13.375C10.8246 6.36538 9.01277 6.36751 7.63827 6.55231ZM7.25439 10.0701C7.60905 9.64447 8.24159 9.58697 8.66719 9.94164L11.5547 12.3479C12.8026 13.3878 13.6689 14.1074 14.4003 14.5778C15.1083 15.0332 15.5885 15.186 16.05 15.186C16.5116 15.186 16.9917 15.0332 17.6997 14.5778C18.4311 14.1074 19.2975 13.3878 20.5453 12.3479L23.4328 9.94164C23.8584 9.58697 24.491 9.64447 24.8456 10.0701C25.2003 10.4957 25.1428 11.1282 24.7172 11.4829L21.7794 13.9311C20.5939 14.919 19.633 15.7198 18.785 16.2652C17.9016 16.8334 17.0412 17.1923 16.05 17.1923C15.0588 17.1923 14.1985 16.8334 13.3151 16.2652C12.467 15.7198 11.5061 14.919 10.3206 13.9311L7.38282 11.4829C6.95722 11.1282 6.89972 10.4957 7.25439 10.0701Z" fill="white"/>
</svg>
