<svg width="485" height="463" viewBox="0 0 485 463" fill="none" xmlns="http://www.w3.org/2000/svg">
<g clip-path="url(#clip0_267_7)">
<path d="M307.302 463H323.502C324.708 462.883 325.895 462.623 327.034 462.228L437.554 411.297C457.116 402.273 469.539 383.388 469.539 362.683C469.539 341.979 457.116 323.094 437.554 314.07L327.034 263.139C326.951 263.101 326.864 263.094 326.789 263.06C326.718 263.03 326.468 262.962 326.306 262.905C325.389 262.653 324.451 262.472 323.502 262.367H315.402V200.633C324.348 200.633 331.602 193.723 331.602 185.2V7.71667C331.602 3.45517 327.975 0 323.502 0H291.101C286.628 0 283.001 3.45517 283.001 7.71667V185.2C283.001 193.723 290.255 200.633 299.201 200.633V263.787C289.527 267.046 283.044 275.743 283.001 285.517V439.85C283.001 452.634 293.882 463 307.302 463ZM299.201 15.4333H315.402V185.2H299.201V15.4333ZM430.505 327.958C444.479 334.405 453.355 347.894 453.355 362.683C453.355 377.472 444.479 390.961 430.505 397.408L428.805 398.181V327.186L430.498 327.958H430.505ZM412.604 405.664L396.404 413.128V312.239L412.604 319.703V405.664ZM380.203 420.558L364.003 428.019V297.306L380.203 304.778V420.558ZM347.803 435.483L331.602 442.951V282.386L347.803 289.854V435.483ZM299.201 285.517C299.201 281.255 302.828 277.8 307.302 277.8H315.402V447.567H307.302C302.828 447.567 299.201 444.112 299.201 439.85V285.517Z" fill="#B7D2EA"/>
<path d="M56.1954 416.7H137.197C154.782 416.64 170.306 405.758 175.602 389.786L194.856 399.044C201.608 402.269 209.629 401.919 216.044 398.121C222.459 394.323 226.343 387.627 226.3 380.43V344.937C226.339 337.698 222.404 330.965 215.925 327.186C209.542 323.414 201.556 323.094 194.864 326.338L175.61 335.6C170.318 319.616 154.786 308.727 137.197 308.667H56.1954C33.8367 308.693 15.722 325.95 15.6943 347.25V378.117C15.722 399.417 33.8367 416.674 56.1954 416.7ZM96.6964 354.967H112.897V370.4H96.6964V354.967ZM202.153 340.106C203.826 339.285 205.832 339.368 207.426 340.321C209.122 341.297 210.139 343.064 210.099 344.952V380.445C210.139 382.333 209.122 384.1 207.426 385.076C205.832 386.033 203.826 386.116 202.153 385.295L177.699 373.486V351.881L202.153 340.106ZM161.498 347.25V378.117C161.498 390.901 150.617 401.267 137.197 401.267H96.6964V385.833H112.897C121.843 385.833 129.097 378.923 129.097 370.4V354.967C129.097 346.444 121.843 339.533 112.897 339.533H96.6964V324.1H137.197C150.617 324.1 161.498 334.466 161.498 347.25ZM31.8948 347.25C31.8948 334.466 42.7755 324.1 56.1954 324.1H80.496V401.267H56.1954C42.7755 401.267 31.8948 390.901 31.8948 378.117V347.25Z" fill="#B7D2EA"/>
<path d="M39.9946 347.25H56.195V362.683H39.9946V347.25Z" fill="#B7D2EA"/>
<path d="M234.4 285.517C234.4 281.255 230.773 277.8 226.3 277.8C223.701 277.8 222.483 276.813 219.01 272.86C214.79 266.338 207.327 262.367 199.286 262.367C191.245 262.367 183.777 266.338 179.561 272.86C176.322 276.598 175.009 277.8 172.272 277.8C169.535 277.8 168.222 276.598 164.982 272.86C160.58 266.545 153.251 262.638 145.297 262.367C140.824 262.367 137.197 265.822 137.197 270.083C137.197 274.345 140.824 277.8 145.297 277.8C148.027 277.8 149.348 279.002 152.587 282.74C156.811 289.258 164.278 293.23 172.319 293.23C180.364 293.23 187.831 289.258 192.052 282.74C195.291 278.994 196.604 277.792 199.341 277.792C201.944 277.792 203.158 278.78 206.63 282.732C211.025 289.047 218.35 292.958 226.3 293.233C230.773 293.233 234.4 289.778 234.4 285.517Z" fill="#B7D2EA"/>
<path d="M211.994 442.627C208.754 446.365 207.441 447.567 204.704 447.567C201.967 447.567 200.654 446.365 197.415 442.627C193.005 436.301 185.664 432.393 177.698 432.133C173.225 432.133 169.598 435.588 169.598 439.85C169.598 444.111 173.225 447.567 177.698 447.567C180.427 447.567 181.748 448.769 184.988 452.506C189.212 459.025 196.679 462.996 204.72 462.996C212.765 462.996 220.232 459.025 224.453 452.506C227.692 448.761 229.005 447.559 231.742 447.559C234.344 447.559 235.559 448.546 239.031 452.499C243.426 458.814 250.751 462.725 258.7 463C263.174 463 266.801 459.545 266.801 455.283C266.801 451.022 263.174 447.567 258.7 447.567C256.102 447.567 254.884 446.579 251.411 442.627C247.191 436.105 239.727 432.133 231.687 432.133C223.646 432.133 216.178 436.105 211.962 442.627H211.994Z" fill="#B7D2EA"/>
<path d="M39.9946 262.367H56.195V277.8H39.9946V262.367Z" fill="#B7D2EA"/>
<path d="M72.3955 231.5H88.5959V246.933H72.3955V231.5Z" fill="#B7D2EA"/>
<path d="M39.9946 200.633H56.195V216.067H39.9946V200.633Z" fill="#B7D2EA"/>
<path d="M72.3955 169.767H88.5959V185.2H72.3955V169.767Z" fill="#B7D2EA"/>
</g>
<defs>
<clipPath id="clip0_267_7">
<rect width="485" height="463" fill="white"/>
</clipPath>
</defs>
</svg>
