<svg width="485" height="320" viewBox="0 0 485 320" fill="none" xmlns="http://www.w3.org/2000/svg">
<path d="M106.162 74.405C126.392 74.405 142.802 57.998 142.802 37.756C142.802 17.522 126.393 1.11499 106.162 1.11499C85.912 1.11499 69.519 17.521 69.519 37.756C69.52 57.998 85.912 74.405 106.162 74.405Z" fill="#B7D2EA"/>
<path d="M479.847 282.886C473.468 276.508 463.106 276.524 456.76 282.902C451.432 288.227 442.172 288.251 436.798 282.878C425.267 271.35 408.19 267.476 392.771 271C319.761 133.601 320.782 43.128 322.09 23.915L333.028 15.624C336.598 12.897 337.314 7.77795 334.589 4.18295C331.863 0.60495 326.744 -0.12205 323.139 2.61395L195.405 99.5099C190.463 94.7039 182.95 93.213 176.527 96.616L135.053 118.574L103.737 94.1369C100.007 87.1379 94.5949 82.256 86.5159 78.837C84.2769 77.89 76.7949 75.597 69.5189 77.284C58.5859 79.819 48.6319 86.5629 44.4219 97.8289C44.4219 97.8289 15.5649 174.621 6.37487 199.383C-0.847127 218.843 13.4869 237.06 26.9609 237.06C27.0089 237.06 27.0409 237.06 27.0729 237.06L105.858 236.686L132.343 303.463C136.169 313.07 145.37 318.93 155.111 318.93C158.124 318.93 161.17 318.372 164.135 317.2C176.718 312.21 182.857 297.97 177.879 285.397L145.226 203.081C141.524 193.746 132.5 187.623 122.455 187.623C122.423 187.623 122.375 187.623 122.331 187.623L80.4409 187.821L100.868 133.321L123.287 150.83C126.221 153.109 129.759 154.282 133.332 154.282C135.945 154.282 138.574 153.66 140.983 152.385L191.801 125.477C195.258 123.644 197.588 120.638 198.993 117.281L313.524 30.412C312.6 60.349 317.558 146.428 384.861 273.503C379.647 275.711 374.768 278.78 370.637 282.91C365.394 288.157 355.986 288.157 350.739 282.91C333.043 265.211 302.251 265.219 284.585 282.887C279.243 288.219 269.946 288.203 264.619 282.887C258.244 276.509 247.91 276.509 241.531 282.887C235.156 289.264 235.156 299.597 241.531 305.974C259.757 324.215 289.431 324.232 307.674 305.974C313.001 300.649 322.293 300.641 327.651 305.998C336.468 314.825 348.206 319.687 360.689 319.687C373.175 319.687 384.909 314.825 393.758 305.966C399.085 300.641 408.349 300.617 413.74 305.99C431.95 324.207 461.604 324.215 479.862 305.966C486.242 299.588 486.227 289.263 479.847 282.886Z" fill="#B7D2EA"/>
<path d="M87.025 248.166H11.606C5.199 248.166 0 253.365 0 259.774V307.991C0 314.402 5.199 319.599 11.606 319.599H87.025C93.437 319.599 98.635 314.402 98.635 307.991V259.774C98.635 253.365 93.437 248.166 87.025 248.166Z" fill="#B7D2EA"/>
</svg>
