<!-- icon666.com - MILLIONS vector ICONS FREE --><svg id="Capa_1" enable-background="new 0 0 512 512" viewBox="0 0 512 512" xmlns="http://www.w3.org/2000/svg"><g><g><path d="m70 98.5h22s27.333 6 27.333 6 12.242 6 27.333 6 27.333-6 27.333-6 12.241-6 27.333-6 27.333 6 27.333 6 12.241 6 27.333 6 27.333-6 27.333-6 12.242-6 27.333-6 27.333 6 27.333 6 12.241 6 27.333 6 27.333-6 27.333-6 12.241-6 27.333-6 22 0 22 0h60v355h-491.996v-355z" fill="#bfdbff" style="fill: rgb(179, 196, 216);"></path><path d="m70 150.5h372v243h-372z" fill="#dfedff" style="fill: rgb(228, 235, 241);"></path><path d="m193.5 303.5c0 13.97-4.24 26.95-11.51 37.71-33.42-14.8-55.99-37.71-55.99-37.71s22.57-22.91 55.99-37.71c7.27 10.76 11.51 23.74 11.51 37.71z" fill="#ffda8f"></path><path d="m386 260.2v86.6l-53.97-23.3c-18.82 14.8-54.77 30-96.03 30-19.63 0-38.06-5.22-54.01-12.29 7.27-10.76 11.51-23.74 11.51-37.71s-4.24-26.95-11.51-37.71c15.95-7.07 34.38-12.29 54.01-12.29 41.26 0 77.21 15.2 96.03 30z" fill="#ffda8f"></path><g fill="#ff9eb1"><circle cx="70" cy="78.5" r="20" fill="#ff9eb1"></circle><circle cx="442" cy="78.5" r="20" fill="#ff9eb1"></circle></g></g><g><circle cx="502" cy="303.52" r="10" fill="#000000" style="fill: rgb(58, 82, 116);"></circle><path d="m509.07 91.43c-1.86-1.86-4.44-2.93-7.07-2.93h-31.72c1.11-3.13 1.72-6.494 1.72-10 0-16.542-13.458-30-30-30s-30 13.458-30 30c0 3.617.644 7.087 1.822 10.301-11.965 1.058-21.565 4.879-25.542 6.709 0 .01-.01.01-.02.01-11.801 6.407-34.385 6.152-45.86 0h-.01c-21.829-10.842-49.732-7.1-63.44-.01-.01.01-.01.01-.02.01-12.877 6.486-33.516 6.257-45.86 0-.01 0-.01 0-.02 0-21.884-10.9-49.826-7.047-63.44-.01 0 .01-.01.01-.01.01-12.89 6.485-33.508 6.258-45.87 0h-.01c-3.973-1.85-13.251-5.57-25.542-6.719 1.178-3.214 1.822-6.684 1.822-10.301 0-16.542-13.458-30-30-30s-30 13.458-30 30c0 3.506.61 6.87 1.72 10h-31.72c-2.63 0-5.21 1.07-7.07 2.93s-2.93 4.44-2.93 7.07v355c0 2.63 1.07 5.21 2.93 7.069 1.86 1.86 4.44 2.931 7.07 2.931h492c2.63 0 5.21-1.07 7.07-2.931 1.86-1.859 2.93-4.439 2.93-7.069v-104.98c0-5.51-4.49-10-10-10s-10 4.49-10 10v94.98h-472v-335h40v285c0 5.522 4.477 10 10 10h372c5.523 0 10-4.478 10-10v-285h40v150.02c0 5.52 4.49 10 10 10s10-4.48 10-10v-160.02c0-2.63-1.07-5.21-2.93-7.07zm-67.07-22.93c5.514 0 10 4.486 10 10s-4.486 10-10 10-10-4.486-10-10 4.486-10 10-10zm-328.58 44.33c22.381 11.438 50.459 8.118 64.98.65 13.165-6.535 33.548-6.271 46.16.13 21.839 10.74 49.544 6.906 63.18-.13 12.946-6.663 34.433-6.045 46.16.13 21.817 10.743 49.566 6.902 63.17-.13 3.315-3.071 25.995-6.104 34.93-4.98v32h-352v-32c10.617-.393 24.684.176 33.42 4.33zm-33.42 180.67v-70h55v59.04c-5.864 4.544-10.289 8.444-13.01 10.96zm129-133v43h-54v-43zm74 0v43h-54v-43zm74 0v43h-54v-43zm75 0v43h-55v-43zm-98.671 111.547c-7.905-5.462-18.21-11.04-30.329-15.801v-32.746h54v38.327zm-97.329-28.547c-2.323 0-4.657.069-7 .203v-20.203h54v26.19c-14.252-3.784-30.126-6.19-47-6.19zm-95.085 60c7.722-6.51 20.735-16.409 37.025-24.709 3.655 7.664 5.56 16.069 5.56 24.709s-1.905 17.045-5.56 24.709c-16.29-8.3-29.305-18.201-37.025-24.709zm37.031-46.855c-7.799 3.438-16.247 7.967-22.946 12.086v-45.231h54v22.937c-10.257 2.189-20.635 5.589-31.054 10.208zm-42.946-53.145h-55v-43h55zm42.94 146.854c9.884 4.401 21.006 8.091 31.06 10.209v22.937h-54v-45.23c6.887 4.21 14.578 8.38 22.94 12.084zm51.06 12.943c2.343.134 4.677.203 7 .203 16.874 0 32.748-2.406 47-6.19v26.19h-54zm74-12.543c12.118-4.761 22.423-10.339 30.329-15.801l23.671 10.219v38.328h-54zm73-19.164-40.007-17.271c-3.368-1.454-7.261-.948-10.145 1.32-22.419 17.251-57.2 27.918-89.848 27.861-12.82 0-26.135-2.458-39.705-7.321 4.737-10.167 7.205-21.274 7.205-32.679s-2.467-22.512-7.204-32.679c13.569-4.862 26.883-7.321 39.704-7.321 32.641-.102 67.384 10.635 89.848 27.86 2.883 2.268 6.776 2.774 10.146 1.321l40.006-17.272zm15.494-79.746c-2.812-1.85-6.366-2.159-9.458-.826l-5.036 2.175v-29.693h55v70h-36v-33.3c0-3.367-1.693-6.507-4.506-8.356zm-321.494-183.344c5.514 0 10 4.486 10 10s-4.486 10-10 10-10-4.486-10-10 4.486-10 10-10zm10 245h41.99c2.721 2.517 7.147 6.416 13.01 10.96v59.04h-55zm297 70v-29.693l5.037 2.174c3.09 1.334 6.645 1.024 9.457-.826 2.813-1.849 4.506-4.989 4.506-8.355v-33.3h36v70z" fill="#000000" style="fill: rgb(58, 82, 116);"></path></g></g></svg>