<!-- icon666.com - MILLIONS vector ICONS FREE --><svg version="1.1" id="Layer_1" xmlns="http://www.w3.org/2000/svg" xmlns:xlink="http://www.w3.org/1999/xlink" x="0px" y="0px" viewBox="0 0 512 512" style="enable-background:new 0 0 512 512;" xml:space="preserve"><circle style="fill:#E8F5F9;" cx="254.763" cy="256.874" r="186.307"/><path style="fill:#FFFFFF;" d="M441.07,256.871c0-102.894-83.414-186.307-186.307-186.307c-1.57,0-3.135,0.021-4.694,0.059 c-81.193,119.288-35.184,287.668,98.085,347.486C403.706,385.861,441.07,325.732,441.07,256.871z"/><path style="fill:#C2E7EF;" d="M107.947,250.703c0-86.475,59.032-159.159,138.996-179.964 c-99.268,4.1-178.491,85.859-178.491,186.132c0,123.093,117.591,212.684,236.548,179.448 C197.479,442.651,107.947,357.218,107.947,250.703z"/><path style="fill:#A0DCF9;" d="M474.471,124.86C428.512,48.232,345.842,0.66,255.351,0.66l0,0c-0.002,0-0.002,0-0.002,0 C107,0.66-10.559,126.989,0.753,275.647C10.783,407.469,120.918,511.34,255.351,511.34 C455.096,511.341,575.28,292.618,474.471,124.86z M255.351,437.806c-109.973-0.001-194.9-97.015-180.196-206.038 C93.831,92.347,256.262,28.025,365.376,111.272c38.259,29.129,65.002,73.308,70.704,124.938 C447.748,345.08,362.557,437.805,255.351,437.806z"/><path style="fill:#6DC5F2;" d="M29.317,275.647C18.62,135.358,123.632,9.759,269.632,1.065c-6.336-0.414-14.593-0.404-14.283-0.404 C107,0.661-10.559,126.99,0.753,275.648C11.162,412.447,129.217,518.679,269.63,510.932 C141.775,503.882,38.991,402.785,29.317,275.647z"/><path style="fill:#BBE7F9;" d="M313.374,7.306c-26.101,17.74-48.457,40.57-65.656,67.06c95.892-3.79,177.85,66.656,188.363,161.844 c8.014,74.777-29.896,144.383-93.313,179.228c27.685,13.474,58.39,21.703,90.832,23.385 C576.323,299.652,511.415,53.685,313.374,7.306z"/><path style="fill:#FCD170;" d="M349.756,302.08c-0.996-0.606-2.273-0.486-3.142,0.294c-12.955,11.642-27.172,21.958-42.253,30.665 c-29.2,16.857-36.004,14.69-35.528,19.038c0.131,1.187,1.04,2.14,2.218,2.325c40.239,6.337,82.47-0.363,120.865-22.1 c0.816-0.463,1.327-1.322,1.342-2.262C393.289,327.948,395.502,329.876,349.756,302.08z"/><path style="fill:#E89E28;" d="M509.465,145.802c-32.714-28.605-50.332-64.798-53.453-102.222 c-0.613-7.311-10.396-9.356-13.888-2.919l-40.611,74.787c-55.574-19.908-117.891-20.407-175.838,1.961l-0.881-39.472 c-0.131-5.882-6.761-9.266-11.602-5.934c-48.942,33.696-66.529,80.464-71.818,99.012C95.828,214.747,68.509,273.65,64.445,336.872 c-0.191,2.984,1.431,5.79,4.111,7.115c152.852,75.497,332.816-18.708,360.831-184.127l75.306-1.079 C511.453,158.687,514.568,150.266,509.465,145.802z"/><path style="fill:#FCD170;" d="M123.513,190.071c-34.147,40.425-55.447,91.646-59.052,146.602c-0.162,3.576,1.629,6.13,4.204,7.365 c49.5,24.433,105.011,31.652,157.304,22.076C237.135,290.767,194.627,217.616,123.513,190.071z"/><path style="fill:#A0814A;" d="M150.735,266.924c4.521,7.83,1.837,17.847-5.995,22.37c-7.833,4.523-17.851,1.84-22.371-5.994 c-4.525-7.832-1.839-17.849,5.991-22.373C136.194,256.405,146.211,259.09,150.735,266.924z"/><g><path style="fill:#F7C472;" d="M260.735,313.582c-7.136-51.373-34.987-99.71-78.969-131.644c-3.546-2.574-4.333-7.536-1.759-11.082 c2.576-3.545,7.538-4.33,11.084-1.759c47.554,34.529,77.645,86.749,85.362,142.301c0.602,4.339-2.426,8.347-6.768,8.95 C265.367,320.953,261.341,317.939,260.735,313.582z"/><path style="fill:#F7C472;" d="M295.32,289.864c-10.197-46.342-35.541-90.209-70.615-122.201c-3.238-2.953-3.47-7.97-0.517-11.208 c2.955-3.24,7.971-3.468,11.209-0.516c37.479,34.181,64.51,80.941,75.421,130.512c0.942,4.28-1.765,8.513-6.043,9.456 C300.447,296.85,296.254,294.108,295.32,289.864z"/><path style="fill:#F7C472;" d="M330.036,264.157c-10.509-43.023-34.19-84.093-66.993-114.928 c-3.192-3.003-3.348-8.024-0.345-11.216c3-3.193,8.021-3.349,11.215-0.347c34.918,32.827,60.258,76.552,71.539,122.726 c1.04,4.256-1.568,8.55-5.825,9.59C335.38,271.021,331.078,268.422,330.036,264.157z"/><path style="fill:#F7C472;" d="M363.624,234.823c-10.176-35.52-29.289-69.133-54.468-96.043c-2.994-3.2-2.828-8.221,0.372-11.215 c3.2-2.994,8.221-2.826,11.215,0.373c26.906,28.757,47.269,64.591,58.135,102.512c1.206,4.212-1.23,8.607-5.442,9.813 C369.211,241.474,364.828,239.023,363.624,234.823z"/><path style="fill:#F7C472;" d="M392.5,181.572c-8.932,0-5.677-8.226-27.621-39.173c-2.534-3.573-1.694-8.525,1.881-11.061 c3.574-2.535,8.526-1.692,11.063,1.881c8.354,11.781,15.676,24.233,21.819,36.969c1.905,3.947,0.248,8.691-3.698,10.594 C394.831,181.318,393.657,181.572,392.5,181.572z"/></g></svg>