<svg width="512" height="228" viewBox="0 0 512 228" fill="none" xmlns="http://www.w3.org/2000/svg">
<path d="M8.69504 121.133C15.94 142.523 43.844 205.522 124.446 219.505C127.427 220.022 130.151 217.702 130.151 214.677V114.001V13.3259C130.151 10.3009 127.426 7.97989 124.446 8.49789C43.845 22.4809 15.94 85.4799 8.69504 106.87C7.12704 111.499 7.12704 116.503 8.69504 121.133Z" fill="#B7D2EA"/>
<path d="M399.575 114.001C399.575 114.001 435.394 45.0498 492.76 36.4298C499.072 35.4818 504.721 40.5138 504.462 46.8918C503.819 62.7418 500.501 91.3488 485.589 107.194C482.021 110.986 482.021 117.018 485.589 120.809C500.501 136.653 503.819 165.26 504.462 181.111C504.721 187.489 499.072 192.521 492.76 191.573C435.393 182.952 399.575 114.001 399.575 114.001Z" fill="#B7D2EA"/>
<path d="M491.071 112.354C507.684 94.7029 511.305 63.9549 511.985 47.1959C512.199 41.9149 510.06 36.8579 506.118 33.3219C502.164 29.7759 496.887 28.1909 491.64 28.9839C478.165 31.0089 464.781 36.2559 451.859 44.5809C448.363 46.8329 447.355 51.4929 449.607 54.9879C451.859 58.4849 456.521 59.4919 460.014 57.2399C471.132 50.0769 482.525 45.5809 493.879 43.8759C494.959 43.7129 495.712 44.2169 496.064 44.5329C496.409 44.8429 496.981 45.5199 496.938 46.5859C496.344 61.2459 493.365 87.9439 480.104 102.034C473.791 108.744 473.791 119.258 480.106 125.97C493.365 140.058 496.344 166.755 496.938 181.416C496.981 182.481 496.409 183.159 496.064 183.468C495.712 183.784 494.96 184.289 493.878 184.126C448.159 177.256 416.197 127.637 408.206 113.991C410.708 109.695 415.567 101.851 422.504 92.8839C425.048 89.5949 424.444 84.8659 421.155 82.3209C417.867 79.7769 413.138 80.3809 410.592 83.6699C403.133 93.3119 397.912 101.732 395.156 106.473H346.376V59.1469C346.376 54.9879 343.005 51.6169 338.846 51.6169C334.687 51.6169 331.316 54.9879 331.316 59.1469V106.473H296.18V59.1469C296.18 54.9879 292.809 51.6169 288.65 51.6169C284.491 51.6169 281.12 54.9879 281.12 59.1469V106.473H245.982V59.1469C245.982 54.9879 242.611 51.6169 238.452 51.6169C234.293 51.6169 230.922 54.9879 230.922 59.1469V106.473H195.784V59.1469C195.784 54.9879 192.413 51.6169 188.254 51.6169C184.095 51.6169 180.724 54.9879 180.724 59.1469V106.473H137.68V13.3269C137.68 9.64793 136.065 6.18093 133.248 3.81093C130.442 1.44993 126.762 0.452923 123.158 1.08092C86.856 7.37892 56.669 23.8039 33.437 49.9009C14.624 71.0329 5.392 93.1509 1.563 104.455C-0.521 110.611 -0.521 117.392 1.563 123.549C4.014 130.783 8.532 142.045 16.141 154.618C18.293 158.175 22.921 159.314 26.481 157.162C30.038 155.008 31.177 150.379 29.024 146.822C22.118 135.411 18.035 125.24 15.826 118.718C14.796 115.676 14.796 112.327 15.826 109.285C19.288 99.0639 27.641 79.0589 44.685 59.9119C64.935 37.1659 91.142 22.5669 122.621 16.4859V211.514C100.217 207.183 80.326 198.454 63.457 185.546C60.156 183.019 55.429 183.647 52.902 186.95C50.375 190.252 51.003 194.979 54.306 197.505C73.899 212.499 97.064 222.396 123.157 226.922C123.865 227.045 124.575 227.105 125.281 227.105C128.174 227.105 130.993 226.089 133.249 224.191C136.066 221.821 137.681 218.354 137.681 214.675V121.531H180.725V168.857C180.725 173.016 184.096 176.387 188.255 176.387C192.414 176.387 195.785 173.016 195.785 168.857V121.531H230.923V168.857C230.923 173.016 234.294 176.387 238.453 176.387C242.612 176.387 245.983 173.016 245.983 168.857V121.531H281.121V168.857C281.121 173.016 284.492 176.387 288.651 176.387C292.81 176.387 296.181 173.016 296.181 168.857V121.531H331.319V168.857C331.319 173.016 334.69 176.387 338.849 176.387C343.008 176.387 346.379 173.016 346.379 168.857V121.531H395.144C404.103 137.04 438.822 191.082 491.642 199.018C492.528 199.151 493.414 199.216 494.295 199.216C498.633 199.216 502.835 197.626 506.121 194.678C510.063 191.143 512.201 186.087 511.987 180.806C511.307 164.048 507.686 133.299 491.075 115.65C490.232 114.756 490.232 113.246 491.071 112.354Z" fill="#516B8C"/>
<path d="M84.8401 97.051C93.6822 97.051 100.85 89.8831 100.85 81.041C100.85 72.1989 93.6822 65.031 84.8401 65.031C75.998 65.031 68.8301 72.1989 68.8301 81.041C68.8301 89.8831 75.998 97.051 84.8401 97.051Z" fill="#516B8C"/>
</svg>
