<svg width="32" height="32" viewBox="0 0 32 32" fill="none" xmlns="http://www.w3.org/2000/svg">
<g clip-path="url(#clip0_193_249)">
<path d="M24 0H8C3.58172 0 0 3.58172 0 8V24C0 28.4183 3.58172 32 8 32H24C28.4183 32 32 28.4183 32 24V8C32 3.58172 28.4183 0 24 0Z" fill="white" fill-opacity="0.45"/>
<path d="M23.3335 14.4946C23.5493 14.4946 23.7241 14.2751 23.7241 14.0044C23.7241 13.7336 23.5493 13.5142 23.3335 13.5142C23.1178 13.5142 22.9429 13.7336 22.9429 14.0044C22.9429 14.2751 23.1178 14.4946 23.3335 14.4946Z" fill="black"/>
<path d="M16.068 14.4946C16.2837 14.4946 16.4586 14.2751 16.4586 14.0044C16.4586 13.7336 16.2837 13.5142 16.068 13.5142C15.8522 13.5142 15.6774 13.7336 15.6774 14.0044C15.6774 14.2751 15.8522 14.4946 16.068 14.4946Z" fill="black"/>
<path d="M8.80241 14.4946C9.01815 14.4946 9.19303 14.2751 9.19303 14.0044C9.19303 13.7336 9.01815 13.5142 8.80241 13.5142C8.58668 13.5142 8.41179 13.7336 8.41179 14.0044C8.41179 14.2751 8.58668 14.4946 8.80241 14.4946Z" fill="black"/>
<path d="M6.39071 24C7.19887 24 7.92023 23.6107 8.47683 22.8741C8.54062 22.7897 8.63452 22.7413 8.73444 22.7413C8.83437 22.7413 8.92823 22.7897 8.99202 22.8741C9.54866 23.6106 10.27 24 11.0782 24C11.2939 24 11.4688 23.7805 11.4688 23.5098V22.5294C11.4688 21.4778 10.9383 20.5787 10.1955 20.2316C10.7321 19.2426 11.6316 17.2952 11.4659 15.6068C11.3063 13.98 10.1768 12.4587 9.12507 11.4911V9.98039H15.6094V11.4911C14.5566 12.4598 13.4282 13.9794 13.2686 15.6067C13.1029 17.2951 14.0023 19.2426 14.5389 20.2316C13.7961 20.5787 13.2657 21.4778 13.2657 22.5294V23.5098C13.2657 23.7805 13.4405 24 13.6563 24C14.4644 24 15.1858 23.6107 15.7424 22.8741C15.8062 22.7897 15.9001 22.7413 16 22.7413C16.0999 22.7413 16.1938 22.7897 16.2576 22.8741C16.8142 23.6106 17.5356 24 18.3438 24C18.5595 24 18.7344 23.7805 18.7344 23.5098V22.5294C18.7344 21.4778 18.2039 20.5787 17.4611 20.2316C17.9977 19.2426 18.8971 17.2952 18.7314 15.6068C18.5718 13.9802 17.4483 12.4641 16.3906 11.4911V9.98039H17.875C18.0907 9.98039 18.2656 9.76088 18.2656 9.4902C18.2656 9.21951 18.0907 9 17.875 9H6.39071C6.17497 9 6.00009 9.21951 6.00009 9.4902C6.00009 9.76088 6.17497 9.98039 6.39071 9.98039H8.34382V11.4944C7.18793 12.5703 5.98814 14.2479 6.00009 16.0625C6.0095 17.6299 6.79258 19.3286 7.27649 20.2301C6.53204 20.5762 6.00005 21.4763 6.00005 22.5294V23.5098C6.00009 23.7805 6.17497 24 6.39071 24ZM16.4775 20.2604C16.3829 20.4073 16.3639 20.6094 16.4287 20.7799C16.4936 20.9503 16.6307 21.0588 16.7812 21.0588C17.4274 21.0588 17.9531 21.7185 17.9531 22.5294V22.976C17.5227 22.8777 17.1378 22.6141 16.8244 22.1994C16.6137 21.9207 16.3133 21.7609 16 21.7609C15.6867 21.7609 15.3862 21.9207 15.1755 22.1995C14.8622 22.6141 14.4773 22.8777 14.0469 22.976V22.5294C14.0469 21.7185 14.5726 21.0588 15.2187 21.0588C15.3692 21.0588 15.5062 20.9503 15.5711 20.78C15.636 20.6097 15.6171 20.4076 15.5226 20.2606C15.507 20.2363 14.0529 17.9517 14.0294 16.0872C14.5347 16.7469 15.2396 17.1373 16 17.1373C16.7604 17.1373 17.4654 16.7468 17.9706 16.0871C17.9472 17.9515 16.493 20.2363 16.4775 20.2604ZM17.7377 14.8252C17.4049 15.6403 16.7392 16.1569 16 16.1569C15.2608 16.1569 14.5952 15.6403 14.2623 14.8252C14.6894 13.6865 15.5873 12.7424 16 12.3497C16.4129 12.7425 17.3106 13.6866 17.7377 14.8252ZM8.73566 12.3508C9.14913 12.7444 10.0455 13.6877 10.4721 14.8252C10.1393 15.6403 9.47362 16.1569 8.73444 16.1569C8.00394 16.1569 7.34203 15.6491 7.00633 14.8477C7.41766 13.7152 8.27546 12.7898 8.73566 12.3508ZM6.78133 22.5294C6.78133 21.7185 7.30703 21.0588 7.9532 21.0588C8.10328 21.0588 8.23999 20.9508 8.30507 20.7812C8.37019 20.6115 8.35199 20.4099 8.25839 20.2627C8.24386 20.2399 6.82079 17.98 6.78227 16.1096C7.28676 16.7553 7.9848 17.1373 8.73444 17.1373C9.49487 17.1373 10.1998 16.7468 10.7051 16.0871C10.6816 17.9515 9.22745 20.2363 9.21194 20.2604C9.11733 20.4073 9.09835 20.6094 9.16319 20.7799C9.22803 20.9503 9.36518 21.0588 9.51569 21.0588C10.1619 21.0588 10.6876 21.7185 10.6876 22.5294V22.976C10.2572 22.8777 9.87221 22.6141 9.55885 22.1994C9.34823 21.9207 9.04772 21.7609 8.73444 21.7609C8.42117 21.7609 8.12066 21.9207 7.91 22.1995C7.59664 22.6141 7.21168 22.8777 6.78133 22.976V22.5294Z" fill="black"/>
<path d="M19.6328 9.98039C19.8485 9.98039 20.0234 9.76092 20.0234 9.4902C20.0234 9.21947 19.8485 9 19.6328 9C19.4171 9 19.2422 9.21947 19.2422 9.4902C19.2422 9.76092 19.4171 9.98039 19.6328 9.98039Z" fill="black"/>
<path d="M25.6093 9.98039C25.8251 9.98039 25.9999 9.76088 25.9999 9.4902C25.9999 9.21951 25.8251 9 25.6093 9H21.3906C21.1749 9 21 9.21951 21 9.4902C21 9.76088 21.1749 9.98039 21.3906 9.98039H22.875V11.4911C21.8221 12.4598 20.6938 13.9794 20.5342 15.6067C20.3685 17.2951 21.2679 19.2426 21.8045 20.2316C21.0617 20.5787 20.5312 21.4778 20.5312 22.5294V23.5098C20.5312 23.7805 20.7061 24 20.9219 24C21.73 24 22.4514 23.6107 23.008 22.8741C23.0718 22.7897 23.1657 22.7413 23.2656 22.7413C23.3655 22.7413 23.4594 22.7897 23.5232 22.8741C24.0798 23.6106 24.8012 24 25.6093 24C25.8251 24 25.9999 23.7805 25.9999 23.5098V22.5294C25.9999 21.4763 25.468 20.5762 24.7235 20.2301C25.2074 19.3286 25.9905 17.63 25.9999 16.0628C26.0119 14.245 24.8139 12.5728 23.6562 11.4951V9.98039H25.6093ZM23.7418 20.2625C23.648 20.4097 23.6297 20.6112 23.6948 20.781C23.7598 20.9508 23.8967 21.0588 24.0468 21.0588C24.693 21.0588 25.2187 21.7185 25.2187 22.5294V22.976C24.7884 22.8777 24.4034 22.6141 24.09 22.1994C23.8793 21.9207 23.5789 21.7609 23.2656 21.7609C22.9523 21.7609 22.6518 21.9207 22.4411 22.1995C22.1278 22.6141 21.7429 22.8777 21.3125 22.976V22.5294C21.3125 21.7185 21.8382 21.0588 22.4843 21.0588C22.6348 21.0588 22.7718 20.9503 22.8367 20.78C22.9016 20.6097 22.8827 20.4076 22.7883 20.2606C22.7726 20.2363 21.3185 17.9517 21.295 16.0872C21.8003 16.7469 22.5052 17.1373 23.2656 17.1373C24.0153 17.1373 24.7133 16.7553 25.2178 16.1096C25.1794 17.9798 23.7561 20.2399 23.7418 20.2625ZM24.9937 14.8477C24.658 15.6491 23.9961 16.1569 23.2656 16.1569C22.5264 16.1569 21.8608 15.6403 21.5279 14.8252C21.9543 13.6884 22.8499 12.7455 23.2636 12.3516C23.7219 12.7912 24.5848 13.7237 24.9937 14.8477Z" fill="black"/>
</g>
<defs>
<clipPath id="clip0_193_249">
<rect width="32" height="32" fill="white"/>
</clipPath>
</defs>
</svg>
