<svg width="32" height="32" viewBox="0 0 32 32" fill="none" xmlns="http://www.w3.org/2000/svg">
<g clip-path="url(#clip0_193_287)">
<path d="M24 0H8C3.58172 0 0 3.58172 0 8V24C0 28.4183 3.58172 32 8 32H24C28.4183 32 32 28.4183 32 24V8C32 3.58172 28.4183 0 24 0Z" fill="white" fill-opacity="0.45"/>
<path d="M22.6002 10.9404C22.7944 10.9404 22.9518 10.783 22.9518 10.5889C22.9518 10.3947 22.7944 10.2373 22.6002 10.2373C22.406 10.2373 22.2486 10.3947 22.2486 10.5889C22.2486 10.783 22.406 10.9404 22.6002 10.9404Z" fill="black"/>
<path d="M16.0612 10.9404C16.2554 10.9404 16.4128 10.783 16.4128 10.5889C16.4128 10.3947 16.2554 10.2373 16.0612 10.2373C15.867 10.2373 15.7096 10.3947 15.7096 10.5889C15.7096 10.783 15.867 10.9404 16.0612 10.9404Z" fill="black"/>
<path d="M9.52217 10.9404C9.71633 10.9404 9.87373 10.783 9.87373 10.5889C9.87373 10.3947 9.71633 10.2373 9.52217 10.2373C9.32801 10.2373 9.17061 10.3947 9.17061 10.5889C9.17061 10.783 9.32801 10.9404 9.52217 10.9404Z" fill="black"/>
<path d="M23.207 22.8906C22.6327 22.8906 22.105 23.163 21.7656 23.6101C21.4254 23.1618 20.8972 22.8906 20.3242 22.8906C19.7499 22.8906 19.2222 23.163 18.8828 23.6101C18.5426 23.1618 18.0144 22.8906 17.4414 22.8906C16.8563 22.8906 16.332 23.1723 16 23.6097C15.6681 23.1725 15.144 22.8906 14.5586 22.8906C13.9843 22.8906 13.4566 23.163 13.1172 23.6101C12.777 23.1618 12.2488 22.8906 11.6758 22.8906C11.1015 22.8906 10.5738 23.163 10.2344 23.6101C9.89419 23.1618 9.36601 22.8906 8.79303 22.8906C7.82129 22.8906 7.00008 23.6765 7.00008 24.6484C7.00008 24.8426 7.15747 25 7.35164 25H24.6484C24.8426 25 25 24.8426 25 24.6484C25 23.6767 24.1789 22.8906 23.207 22.8906ZM7.76799 24.2969C7.92137 23.8918 8.3289 23.5938 8.79303 23.5938C9.25716 23.5938 9.66469 23.8918 9.81808 24.2969H7.76799ZM10.651 24.2969C10.8044 23.8919 11.2117 23.5938 11.6758 23.5938C12.1399 23.5938 12.5473 23.8919 12.7007 24.2969H10.651ZM13.5337 24.2969C13.6872 23.8919 14.0945 23.5938 14.5586 23.5938C15.0227 23.5938 15.4301 23.8919 15.5835 24.2969H13.5337ZM16.4165 24.2969C16.57 23.8919 16.9773 23.5938 17.4414 23.5938C17.9055 23.5938 18.3129 23.8919 18.4663 24.2969H16.4165ZM19.2993 24.2969C19.4528 23.8919 19.8601 23.5938 20.3242 23.5938C20.7883 23.5938 21.1956 23.8919 21.3491 24.2969H19.2993ZM22.182 24.2969C22.3353 23.8918 22.7429 23.5938 23.207 23.5938C23.6711 23.5938 24.0787 23.8918 24.232 24.2969H22.182Z" fill="black"/>
<path d="M13.7516 20.5358C14.0852 20.3135 14.2844 19.9415 14.2845 19.5405C14.2846 19.1395 14.0854 18.7671 13.7518 18.5445C13.5902 18.4367 13.3719 18.4803 13.2642 18.6419C13.1565 18.8034 13.2 19.0217 13.3616 19.1294C13.5013 19.2227 13.5814 19.3725 13.5813 19.5404C13.5813 19.7081 13.5012 19.8577 13.3616 19.9508C13.0279 20.1734 12.8287 20.5457 12.8288 20.9468C12.8289 21.3477 13.0281 21.7197 13.3617 21.942C13.5227 22.0493 13.7411 22.0066 13.8492 21.8445C13.9569 21.6829 13.9132 21.4646 13.7516 21.357C13.6121 21.2639 13.532 21.1144 13.532 20.9467C13.5319 20.7787 13.612 20.6289 13.7516 20.5358Z" fill="black"/>
<path d="M16.2125 20.5358C16.5461 20.3135 16.7453 19.9415 16.7454 19.5405C16.7455 19.1395 16.5463 18.7671 16.2127 18.5445C16.0512 18.4367 15.8329 18.4803 15.7251 18.6419C15.6174 18.8034 15.6609 19.0217 15.8225 19.1294C15.9622 19.2227 16.0423 19.3725 16.0423 19.5404C16.0422 19.7081 15.9622 19.8577 15.8225 19.9508C15.4888 20.1734 15.2897 20.5457 15.2898 20.9468C15.2899 21.3477 15.4891 21.7197 15.8226 21.942C15.9837 22.0493 16.2021 22.0066 16.3101 21.8445C16.4178 21.6829 16.3741 21.4646 16.2125 21.357C16.073 21.2639 15.9929 21.1144 15.9929 20.9467C15.9928 20.7787 16.073 20.6289 16.2125 20.5358Z" fill="black"/>
<path d="M18.6736 18.5445C18.5121 18.4367 18.2938 18.4803 18.1861 18.6419C18.0783 18.8034 18.1219 19.0217 18.2834 19.1294C18.4232 19.2227 18.5033 19.3725 18.5032 19.5404C18.5032 19.7081 18.4231 19.8577 18.2834 19.9508C17.9498 20.1734 17.7506 20.5457 17.7507 20.9468C17.7508 21.3477 17.95 21.7197 18.2836 21.942C18.4446 22.0493 18.663 22.0066 18.7711 21.8445C18.8788 21.6829 18.8351 21.4646 18.6735 21.357C18.534 21.2639 18.4539 21.1144 18.4538 20.9467C18.4538 20.7787 18.5339 20.6289 18.6735 20.5358C19.007 20.3135 19.2062 19.9415 19.2063 19.5405C19.2064 19.1395 19.0073 18.7671 18.6736 18.5445Z" fill="black"/>
<path d="M7.35164 17.7578C8.07898 17.7578 8.72821 17.4786 9.22915 16.9503C9.28656 16.8898 9.37107 16.8551 9.461 16.8551C9.55093 16.8551 9.63541 16.8898 9.69282 16.9503C10.1938 17.4786 10.843 17.7578 11.5704 17.7578C11.7645 17.7578 11.9219 17.6004 11.9219 17.4062V16.7031C11.9219 15.9489 11.4445 15.3041 10.776 15.0551C11.2589 14.3459 12.0684 12.9492 11.9193 11.7383C11.7757 10.5716 10.7591 9.48055 9.81256 8.78661V7.70312H15.6485V8.78661C14.7009 9.48129 13.6854 10.5711 13.5417 11.7383C13.3926 12.9492 14.2021 14.3459 14.685 15.0551C14.0165 15.3041 13.5391 15.9489 13.5391 16.7031V17.4062C13.5391 17.6004 13.6965 17.7578 13.8907 17.7578C14.618 17.7578 15.2673 17.4786 15.7682 16.9503C15.8256 16.8898 15.9101 16.8551 16 16.8551C16.0899 16.8551 16.1744 16.8898 16.2318 16.9503C16.7328 17.4786 17.382 17.7578 18.1094 17.7578C18.3035 17.7578 18.4609 17.6004 18.4609 17.4062V16.7031C18.4609 15.9489 17.9835 15.3041 17.315 15.0551C17.7979 14.3459 18.6074 12.9492 18.4583 11.7383C18.3146 10.5718 17.3034 9.48442 16.3516 8.78661V7.70312H17.6875C17.8817 7.70312 18.0391 7.5457 18.0391 7.35156C18.0391 7.15743 17.8817 7 17.6875 7H7.35164C7.15747 7 7.00008 7.15743 7.00008 7.35156C7.00008 7.5457 7.15747 7.70312 7.35164 7.70312H9.10944V8.78893C8.06914 9.56061 6.98932 10.7638 7.00008 12.0651C7.00855 13.1892 7.71332 14.4075 8.14884 15.0541C7.47883 15.3023 7.00004 15.9479 7.00004 16.7031V17.4062C7.00008 17.6004 7.15747 17.7578 7.35164 17.7578ZM16.4297 15.0758C16.3446 15.1812 16.3275 15.3261 16.3859 15.4484C16.4442 15.5706 16.5676 15.6484 16.7031 15.6484C17.2847 15.6484 17.7578 16.1216 17.7578 16.7031V17.0234C17.3705 16.9529 17.024 16.7638 16.7419 16.4665C16.5524 16.2666 16.2819 16.1519 16 16.1519C15.718 16.1519 15.4476 16.2666 15.258 16.4665C14.976 16.7639 14.6295 16.9529 14.2422 17.0234V16.7031C14.2422 16.1216 14.7153 15.6484 15.2969 15.6484C15.4323 15.6484 15.5556 15.5706 15.614 15.4485C15.6724 15.3263 15.6554 15.1814 15.5704 15.076C15.5563 15.0585 14.2476 13.42 14.2265 12.0829C14.6812 12.556 15.3156 12.8359 16 12.8359C16.6844 12.8359 17.3188 12.5559 17.7736 12.0828C17.7524 13.4199 16.4437 15.0585 16.4297 15.0758ZM17.5639 11.1778C17.2644 11.7623 16.6653 12.1328 16 12.1328C15.3348 12.1328 14.7357 11.7623 14.4361 11.1778C14.8205 10.3611 15.6286 9.68397 16 9.40237C16.3716 9.68407 17.1796 10.3612 17.5639 11.1778ZM9.46209 9.40318C9.83422 9.68541 10.6409 10.362 11.0249 11.1778C10.7254 11.7623 10.1263 12.1328 9.461 12.1328C8.80355 12.1328 8.20783 11.7687 7.9057 11.1939C8.27589 10.3817 9.04792 9.71796 9.46209 9.40318ZM7.7032 16.7031C7.7032 16.1216 8.17633 15.6484 8.75788 15.6484C8.89295 15.6484 9.016 15.571 9.07457 15.4493C9.13317 15.3276 9.11679 15.183 9.03255 15.0775C9.01948 15.0611 7.73871 13.4404 7.70404 12.0989C8.15808 12.562 8.78632 12.8359 9.461 12.8359C10.1454 12.8359 10.7798 12.5559 11.2345 12.0828C11.2135 13.4199 9.9047 15.0585 9.89075 15.0758C9.8056 15.1812 9.78851 15.3261 9.84687 15.4484C9.90523 15.5706 10.0287 15.6484 10.1641 15.6484C10.7457 15.6484 11.2188 16.1216 11.2188 16.7031V17.0234C10.8315 16.9529 10.485 16.7638 10.203 16.4665C10.0134 16.2666 9.74295 16.1519 9.461 16.1519C9.17905 16.1519 8.90859 16.2666 8.719 16.4665C8.43698 16.7639 8.09051 16.9529 7.7032 17.0234V16.7031Z" fill="black"/>
<path d="M19.2695 7.70313C19.4637 7.70313 19.6211 7.54573 19.6211 7.35156C19.6211 7.1574 19.4637 7 19.2695 7C19.0754 7 18.918 7.1574 18.918 7.35156C18.918 7.54573 19.0754 7.70313 19.2695 7.70313Z" fill="black"/>
<path d="M24.6484 7.70312C24.8426 7.70312 25 7.5457 25 7.35156C25 7.15743 24.8426 7 24.6484 7H20.8516C20.6574 7 20.5 7.15743 20.5 7.35156C20.5 7.5457 20.6574 7.70312 20.8516 7.70312H22.1875V8.78661C21.2399 9.48129 20.2244 10.5711 20.0808 11.7383C19.9316 12.9492 20.7411 14.3459 21.2241 15.0551C20.5555 15.3041 20.0781 15.9489 20.0781 16.7031V17.4062C20.0781 17.6004 20.2355 17.7578 20.4297 17.7578C21.157 17.7578 21.8062 17.4786 22.3072 16.9503C22.3646 16.8898 22.4491 16.8551 22.539 16.8551C22.629 16.8551 22.7134 16.8898 22.7709 16.9503C23.2718 17.4786 23.9211 17.7578 24.6484 17.7578C24.8426 17.7578 25 17.6004 25 17.4062V16.7031C25 15.9479 24.5212 15.3023 23.8512 15.0541C24.2867 14.4075 24.9915 13.1893 24.9999 12.0654C25.0107 10.7616 23.9325 9.56236 22.8906 8.78949V7.70312H24.6484ZM22.9676 15.0773C22.8832 15.1829 22.8668 15.3274 22.9253 15.4492C22.9839 15.571 23.107 15.6484 23.2422 15.6484C23.8237 15.6484 24.2968 16.1216 24.2968 16.7031V17.0234C23.9095 16.9529 23.5631 16.7638 23.281 16.4665C23.0914 16.2666 22.821 16.1519 22.539 16.1519C22.2571 16.1519 21.9866 16.2666 21.797 16.4665C21.5151 16.7639 21.1686 16.9529 20.7812 17.0234V16.7031C20.7812 16.1216 21.2544 15.6484 21.8359 15.6484C21.9713 15.6484 22.0946 15.5706 22.153 15.4485C22.2114 15.3263 22.1944 15.1814 22.1094 15.076C22.0953 15.0585 20.7867 13.42 20.7655 12.0829C21.2203 12.556 21.8547 12.8359 22.5391 12.8359C23.2138 12.8359 23.842 12.562 24.296 12.0989C24.2615 13.4402 22.9805 15.0611 22.9676 15.0773ZM24.0943 11.1939C23.7922 11.7687 23.1965 12.1328 22.539 12.1328C21.8738 12.1328 21.2747 11.7623 20.9751 11.1778C21.3589 10.3624 22.1649 9.68622 22.5372 9.40374C22.9497 9.71902 23.7263 10.3878 24.0943 11.1939Z" fill="black"/>
</g>
<defs>
<clipPath id="clip0_193_287">
<rect width="32" height="32" fill="white"/>
</clipPath>
</defs>
</svg>
