<svg width="33" height="33" viewBox="0 0 33 33" fill="none" xmlns="http://www.w3.org/2000/svg">
<path fill-rule="evenodd" clip-rule="evenodd" d="M26.3884 3.79665C25.0608 4.03281 23.2663 4.62816 20.7294 5.47378L8.24884 9.6338C6.83013 10.1067 5.85863 10.4325 5.18055 10.7582C4.50736 11.0814 4.32821 11.3123 4.25924 11.4789C4.20109 11.6194 4.16593 11.7683 4.15511 11.92C4.14228 12.0999 4.19927 12.3864 4.65681 12.9766C5.11767 13.5711 5.84087 14.297 6.89832 15.3544L7.27633 15.7324C7.29441 15.7505 7.31228 15.7683 7.32995 15.786C7.61834 16.074 7.85319 16.3086 8.03663 16.5787C8.39584 17.1077 8.59973 17.7266 8.62521 18.3655C8.63822 18.6917 8.58877 19.02 8.52805 19.423C8.52433 19.4477 8.52057 19.4727 8.51677 19.498C8.38406 20.3822 8.29162 21.0009 8.24877 21.4834C8.20616 21.9633 8.22164 22.2268 8.26398 22.411C8.29377 22.5407 8.33301 22.6666 8.38096 22.788L27.4787 3.69033C27.1922 3.68558 26.8364 3.71696 26.3884 3.79665ZM29.9572 2.63035C30.981 3.65404 31.0331 5.05032 30.7662 6.55049C30.5011 8.04044 29.8563 9.97477 29.0457 12.4065L24.8083 25.1183C24.375 26.418 24.0201 27.4827 23.6448 28.2704C23.2613 29.0752 22.768 29.7893 21.9454 30.1513C21.5626 30.3198 21.1521 30.4167 20.7343 30.4372C19.8367 30.4813 19.0761 30.0631 18.3731 29.5148C17.6852 28.9781 16.8916 28.1846 15.9228 27.2158L15.5383 26.8313C15.1583 26.4513 15.0613 26.3607 14.9653 26.2963C14.7561 26.1562 14.5133 26.0743 14.2619 26.0591C14.1465 26.0522 14.0144 26.0656 13.4819 26.1378L13.3543 26.1552C12.5078 26.27 11.8276 26.3624 11.2767 26.4035C10.7163 26.4453 10.2084 26.442 9.72331 26.3233C8.02208 25.9071 6.70089 24.5672 6.30868 22.8603C6.19685 22.3736 6.20067 21.8658 6.25039 21.306C6.29924 20.7558 6.40114 20.0769 6.52793 19.2323L6.53274 19.2002C6.61005 18.6851 6.62501 18.5572 6.62056 18.4454C6.61001 18.181 6.52561 17.9248 6.37693 17.7059C6.31409 17.6133 6.22601 17.5193 5.85773 17.1511L5.42987 16.7232C4.43454 15.728 3.61928 14.9128 3.07122 14.2058C2.51071 13.4828 2.08816 12.6995 2.15394 11.7772C2.18008 11.4108 2.26502 11.051 2.40552 10.7116C2.75913 9.85729 3.4874 9.34564 4.31207 8.94962C5.11844 8.5624 6.21221 8.19785 7.54755 7.75278L20.1809 3.54184C22.6127 2.73124 24.547 2.08645 26.037 1.82141C27.5372 1.55454 28.9335 1.60667 29.9572 2.63035ZM28.8973 5.10897L9.77506 24.2312C9.91099 24.2904 10.053 24.3385 10.2001 24.3745C10.3837 24.4194 10.647 24.4386 11.1274 24.4028C11.6105 24.3667 12.2305 24.283 13.1165 24.1628L13.2121 24.1498C13.2382 24.1463 13.264 24.1428 13.2894 24.1393C13.7063 24.0825 14.0458 24.0362 14.3828 24.0565C14.99 24.0931 15.5764 24.2909 16.0818 24.6295C16.3622 24.8173 16.6044 25.0597 16.9017 25.3573C16.9199 25.3756 16.9383 25.394 16.9569 25.4126L17.293 25.7487C18.3222 26.7778 19.0286 27.4817 19.6071 27.9329C20.182 28.3814 20.4622 28.4419 20.636 28.4334C20.8089 28.4249 20.9788 28.3848 21.1373 28.315C21.2965 28.245 21.52 28.0656 21.8337 27.4073C22.1493 26.745 22.4664 25.7996 22.9266 24.4188L27.1138 11.8579C27.9594 9.32102 28.5548 7.52663 28.791 6.1991C28.8707 5.75117 28.902 5.39534 28.8973 5.10897Z" fill="white"/>
</svg>
