<svg width="34" height="33" viewBox="0 0 34 33" fill="none" xmlns="http://www.w3.org/2000/svg">
<path fill-rule="evenodd" clip-rule="evenodd" d="M31.3911 16.0627C31.3911 8.12188 24.9538 1.68457 17.0129 1.68457C9.07211 1.68457 2.6348 8.12188 2.6348 16.0627C2.6348 18.3609 3.17476 20.536 4.13564 22.4651C4.27903 22.753 4.30945 23.047 4.24329 23.2943L3.44666 26.2716C2.90133 28.3097 4.76593 30.1743 6.80406 29.629L9.78139 28.8324C10.0287 28.7662 10.3226 28.7966 10.6105 28.94C12.5397 29.9009 14.7147 30.4409 17.0129 30.4409C24.9538 30.4409 31.3911 24.0035 31.3911 16.0627ZM17.0129 3.69082C23.8457 3.69082 29.3848 9.22991 29.3848 16.0627C29.3848 22.8955 23.8457 28.4346 17.0129 28.4346C15.032 28.4346 13.1625 27.9698 11.505 27.1442C10.8397 26.8128 10.0442 26.6852 9.26283 26.8943L6.2855 27.6909C5.73869 27.8372 5.23843 27.337 5.38474 26.7901L6.18136 23.8128C6.39043 23.0315 6.26283 22.2359 5.93147 21.5707C5.10587 19.9131 4.64105 18.0436 4.64105 16.0627C4.64105 9.22991 10.1801 3.69082 17.0129 3.69082Z" fill="white"/>
<path fill-rule="evenodd" clip-rule="evenodd" d="M10.3321 8.40035C11.8302 6.90228 14.3582 7.01616 15.4013 8.88521L15.98 9.92216C16.6611 11.1427 16.3709 12.6827 15.3737 13.692C15.3604 13.7102 15.29 13.8127 15.2813 13.9917C15.2701 14.2203 15.3513 14.7489 16.1702 15.5678C16.9888 16.3865 17.5173 16.4678 17.746 16.4567C17.9252 16.448 18.0278 16.3776 18.046 16.3643C19.0553 15.3671 20.5953 15.0769 21.8158 15.758L22.8528 16.3367C24.7218 17.3798 24.8357 19.9078 23.3376 21.4059C22.5363 22.2072 21.4709 22.9192 20.2188 22.9666C18.3633 23.037 15.2824 22.5578 12.2313 19.5067C9.18017 16.4556 8.701 13.3747 8.77134 11.5192C8.81881 10.2671 9.5308 9.20165 10.3321 8.40035ZM14.2333 9.53701C13.6992 8.57995 12.2639 8.36007 11.2779 9.3461C10.5865 10.0375 10.1371 10.8006 10.1079 11.5699C10.0492 13.1172 10.4313 15.8152 13.177 18.561C15.9228 21.3067 18.6208 21.6888 20.1681 21.6301C20.9374 21.6009 21.7005 21.1515 22.3919 20.4601C23.3779 19.4741 23.158 18.0388 22.201 17.5046L21.164 16.9259C20.519 16.566 19.6129 16.6888 18.9769 17.3248C18.9144 17.3872 18.5167 17.7583 17.811 17.7926C17.0885 17.8278 16.214 17.5032 15.2244 16.5136C14.2345 15.5236 13.91 14.6489 13.9454 13.9263C13.9799 13.2206 14.3511 12.8232 14.4132 12.7611C15.0492 12.1251 15.172 11.219 14.812 10.574L14.2333 9.53701Z" fill="white" stroke="white" stroke-width="0.668751" stroke-linecap="round"/>
</svg>
