<svg width="100" height="79" viewBox="0 0 100 79" fill="none" xmlns="http://www.w3.org/2000/svg">
<path d="M99.5781 45.35C99.1719 44.2125 98.4141 43.2813 97.7266 42.425C97.2891 41.8938 96.8047 41.2813 96.5312 40.6875C96.2344 40.0125 95.8359 39.4188 95.4531 38.85C95.0937 38.3188 94.7578 37.825 94.5938 37.3625C94.2891 36.5438 94.4687 35.525 94.6719 34.45C94.7344 34.1313 94.7891 33.8188 94.8359 33.5063C95.0312 32.2438 95.3203 30.9938 95.7031 29.7875C95.7578 29.6375 95.8437 29.4063 95.9531 29.1188C97.2031 25.8688 97.5859 24.2313 96.5391 23.1063C96.0547 22.575 95.2891 22.275 94.4609 22.275C93.2734 22.275 92.25 22.9063 91.4844 23.4563C90.8047 23.9438 90.2891 24.5063 89.8359 25.0063L89.4766 25.4063C88.7422 26.1875 88 26.9563 87.25 27.725C86.2578 28.7563 85.2578 29.7938 84.2734 30.85C84.0391 31.0938 83.8047 31.3875 83.5391 31.7C83.1484 32.1875 82.2187 33.325 81.7187 33.4188C81.4219 33.4188 80.8437 33.1938 80.375 33.0125L80.0234 32.8813C77.3281 31.8563 74.4141 30.7688 71.3828 29.7625C70.6719 28.5938 69.5781 27.5438 68.7969 26.4188C67.7891 24.9563 66.8047 22.2188 64.1641 22.6938C62.2422 23.0438 60.2891 24.9375 58.8984 25.9688C58.7109 26.1063 58.5391 26.2313 58.3906 26.35C52.625 25.0938 46.8672 24.1125 40.9453 23.8563C40.4922 22.725 40.5547 21.4 40.6953 20.1875C40.8594 18.775 41.2969 16.9063 38.7031 17.5313C37.0078 17.9375 35.5078 19.125 34.1172 19.9688C31.9453 21.2938 30.1328 22.8625 28.3906 24.5375C26.5625 24.825 24.7734 25.1813 23.0547 25.6375C16.9766 27.25 11.6641 29.8813 7.25781 33.4688C5.96875 34.525 4.76562 35.6563 3.67969 36.8188C3.10937 37.425 2.55469 38.0563 2.03125 38.725L1.69531 39.1313C1.25 39.6688 0.749999 40.275 0.414062 41.0688C-0.257813 42.6563 0.976562 43.7188 1.5625 44.2313L1.90625 44.4813C1.91406 44.625 1.90625 44.7313 1.89844 44.825C1.86719 45.4 1.88281 45.9875 2.60156 46.875C4.82812 49.6063 8.72656 51.3 11.5781 52.5375L12.1562 52.7938C15.3125 54.175 18.7031 55.225 22.5078 56.025C24.5859 56.4563 26.6641 56.8125 28.7266 57.1C29.3437 57.4875 29.9453 57.8125 30.0937 57.8875C32.4687 59.1625 35.5078 60.55 38.4609 60.55C40.7422 60.55 38.9453 58.7188 38.3125 58.05C38.2578 57.9938 38.2109 57.9313 38.1484 57.8688C38.8984 57.8875 39.6719 57.9375 40.3984 57.9375C42.1797 57.9375 43.9375 57.875 45.6406 57.7563C50.5156 57.4125 55.5859 56.4188 60.7109 54.8063C60.8437 54.7625 60.9687 54.7188 61.0937 54.675C61.2969 54.7 61.5 54.725 61.6328 54.7438C63.375 54.9938 65.1641 55.5625 66.9531 55.4625C69.4375 55.3188 69.4844 54.325 70.3203 52.7438C70.7188 52.0188 70.9609 51.2688 71.3359 50.5438C71.3828 50.4563 71.4375 50.35 71.4922 50.2563C73.7734 49.05 76.0703 47.6875 78.4062 46.1438C79.1953 45.6313 80.0469 45.175 80.9531 44.6938C81.8672 44.2 82.8203 43.6938 83.8906 43.0688C84.7656 43.0688 86.3984 44.025 87.1797 44.4813L88.0625 44.9938C89.6172 45.9 91.2266 46.8375 93.0391 47.5813C93.8594 47.9188 95.4219 48.4875 96.7422 48.4875C98.0859 48.4875 98.8047 47.9313 99.1172 47.6063C99.5781 47.2 99.9687 46.4625 99.5781 45.35Z" fill="#006CA2"/>
<path d="M78.6484 41.8625C77.6875 42.3688 76.7109 42.8938 75.7578 43.5188C70.0625 47.2625 64.6484 49.925 59.2031 51.6375C54.4609 53.1313 49.7891 54.05 45.3125 54.3625C42.3984 54.575 39.3203 54.5875 36.1562 54.4125C32.5391 54.2063 28.8281 53.7313 25.0937 53.0188C25.5703 52.175 25.9609 51.2938 26.2578 50.4C26.6172 49.3313 26.7422 47.9375 26.6172 46.725C27.1719 46.875 27.7109 47.0125 28.2656 47.175C30.0156 47.6938 31.7969 48.0313 33.5703 48.0438C34.8984 48.0438 35.8516 47.0438 36.8906 46.0938C38.0234 45.05 39.2187 44.025 39.4531 41.8875C39.5156 41.3813 39.7266 40.675 39.4375 40.3062C39.1016 39.8625 38.3359 39.9375 37.9141 39.8437C37.3516 39.7312 36.8047 39.6813 36.2578 39.625C34.6641 39.4625 33.1797 39.5563 31.6094 39.8313C29.8281 40.1375 28.0078 40.5563 26.2812 41.2375C26.0547 41.325 25.8359 41.4375 25.6094 41.5438C25.2656 40.3563 24.7031 39.2 24.1719 38.0625C23.7578 37.175 23.4844 36.2813 22.5078 35.6563C21.9844 35.3188 20.6484 35.0125 20.3984 35.7438C20.2969 36.05 20.5312 36.4938 20.8125 36.9125C21.0391 37.25 21.2812 37.5688 21.3828 37.8C22.1016 39.475 22.4375 41.2375 22.7656 42.975C23.1641 45.0438 23.2656 46.7875 23.0859 48.8875C23 49.8813 22.6562 50.8375 22.2344 51.675C22.1172 51.9 21.9844 52.1188 21.8359 52.3313C19.0859 51.6625 16.5781 50.8438 14.2344 49.8188L13.6484 49.5625C11.1016 48.4563 7.92969 47.075 6.19531 45.0063C6.21094 44.8438 6.21875 44.65 6.20313 44.4063C6.75781 43.75 8.16406 43.9938 8.92187 44.2063C9.89844 44.4813 10.8281 45.0062 11.8594 44.9312C12.8516 44.8625 13.2187 44.0625 12.6797 43.425C12.1641 42.8 10.9062 42.5063 10.1016 42.1875C9.17969 41.8188 8.08594 41.6563 7.09375 41.4313C6.46875 41.2875 5.8125 41.2313 5.15625 41.2188C5.20312 41.1625 5.23438 41.1125 5.28125 41.0563C5.41406 40.8938 5.55469 40.7313 5.67188 40.5688C6.125 39.9875 6.625 39.4313 7.11719 38.8938C8.09375 37.85 9.16406 36.8437 10.3281 35.8937C11.2578 35.1375 12.2422 34.425 13.2578 33.7688C13.9297 33.3688 15.5781 32.625 18.0469 32.9937C20.6641 33.3875 22.2109 34.3938 26.8203 33.8125C31.4375 33.2313 31.9766 31.5 36.4766 31.5C40.9766 31.5 42.5547 34.3125 48.0625 34.525C52.9687 34.7063 53.4141 32.3688 58.125 32.9313C62.8359 33.4875 63.2812 37.1188 69.6328 37.1188C75.9844 37.1188 76.8828 35.3062 83.5234 39.175C83.5 39.35 83.4453 39.5313 83.3828 39.7188C82.5391 39.8 81.7578 40.05 81.1016 40.475C80.3516 40.95 79.5234 41.3938 78.6484 41.8625V41.8625Z" fill="#40C0E7"/>
<mask id="mask0_21_21" style="mask-type:luminance" maskUnits="userSpaceOnUse" x="5" y="31" width="79" height="24">
<path d="M78.6484 41.8625C77.6875 42.3688 76.7109 42.8938 75.7578 43.5188C70.0625 47.2625 64.6484 49.925 59.2031 51.6375C54.4609 53.1313 49.7891 54.05 45.3125 54.3625C42.3984 54.575 39.3203 54.5875 36.1562 54.4125C32.5391 54.2063 28.8281 53.7313 25.0937 53.0188C25.5703 52.175 25.9609 51.2938 26.2578 50.4C26.6172 49.3313 26.7422 47.9375 26.6172 46.725C27.1719 46.875 27.7109 47.0125 28.2656 47.175C30.0156 47.6938 31.7969 48.0313 33.5703 48.0438C34.8984 48.0438 35.8516 47.0438 36.8906 46.0938C38.0234 45.05 39.2187 44.025 39.4531 41.8875C39.5156 41.3813 39.7266 40.675 39.4375 40.3062C39.1016 39.8625 38.3359 39.9375 37.9141 39.8437C37.3516 39.7312 36.8047 39.6813 36.2578 39.625C34.6641 39.4625 33.1797 39.5563 31.6094 39.8313C29.8281 40.1375 28.0078 40.5563 26.2812 41.2375C26.0547 41.325 25.8359 41.4375 25.6094 41.5438C25.2656 40.3563 24.7031 39.2 24.1719 38.0625C23.7578 37.175 23.4844 36.2813 22.5078 35.6563C21.9844 35.3188 20.6484 35.0125 20.3984 35.7438C20.2969 36.05 20.5312 36.4938 20.8125 36.9125C21.0391 37.25 21.2812 37.5688 21.3828 37.8C22.1016 39.475 22.4375 41.2375 22.7656 42.975C23.1641 45.0438 23.2656 46.7875 23.0859 48.8875C23 49.8813 22.6562 50.8375 22.2344 51.675C22.1172 51.9 21.9844 52.1188 21.8359 52.3313C19.0859 51.6625 16.5781 50.8438 14.2344 49.8188L13.6484 49.5625C11.1016 48.4563 7.92969 47.075 6.19531 45.0063C6.21094 44.8438 6.21875 44.65 6.20313 44.4063C6.75781 43.75 8.16406 43.9938 8.92187 44.2063C9.89844 44.4813 10.8281 45.0062 11.8594 44.9312C12.8516 44.8625 13.2187 44.0625 12.6797 43.425C12.1641 42.8 10.9062 42.5063 10.1016 42.1875C9.17969 41.8188 8.08594 41.6563 7.09375 41.4313C6.46875 41.2875 5.8125 41.2313 5.15625 41.2188C5.20312 41.1625 5.23438 41.1125 5.28125 41.0563C5.41406 40.8938 5.55469 40.7313 5.67188 40.5688C6.125 39.9875 6.625 39.4313 7.11719 38.8938C8.09375 37.85 9.16406 36.8437 10.3281 35.8937C11.2578 35.1375 12.2422 34.425 13.2578 33.7688C13.9297 33.3688 15.5781 32.625 18.0469 32.9937C20.6641 33.3875 22.2109 34.3938 26.8203 33.8125C31.4375 33.2313 31.9766 31.5 36.4766 31.5C40.9766 31.5 42.5547 34.3125 48.0625 34.525C52.9687 34.7063 53.4141 32.3688 58.125 32.9313C62.8359 33.4875 63.2812 37.1188 69.6328 37.1188C75.9844 37.1188 76.8828 35.3062 83.5234 39.175C83.5 39.35 83.4453 39.5313 83.3828 39.7188C82.5391 39.8 81.7578 40.05 81.1016 40.475C80.3516 40.95 79.5234 41.3938 78.6484 41.8625V41.8625Z" fill="white"/>
</mask>
<g mask="url(#mask0_21_21)">
<path d="M4.15625 42.4688C4.15625 42.4688 18.8984 46.3063 44.9375 45.8688C66.9688 45.5001 87.3594 37.6626 87.3594 37.6626L86.6328 40.8688L82.4609 41.7938C82.4609 41.7938 65.375 55.6938 45.5156 56.0751C38.4297 56.2063 28.1641 55.5751 21.8203 53.9813C10.3594 51.0813 4.77344 46.3188 4.77344 46.3188L4.15625 42.4688Z" fill="white"/>
</g>
<path d="M13.5157 37.1C12.0703 37.1625 10.9375 38.275 11.0157 39.5688C11.0938 40.8688 12.3282 41.8625 13.7735 41.8C15.2344 41.7313 16.3672 40.6313 16.2891 39.3313C16.2032 38.0375 14.9688 37.0313 13.5157 37.1Z" fill="#2F2F2F"/>
</svg>
